<svg width="19" height="20" viewBox="0 0 19 20" fill="none" xmlns="http://www.w3.org/2000/svg">
<path fill-rule="evenodd" clip-rule="evenodd" d="M7.90563 2.30211C7.87341 2.21505 7.75028 2.21505 7.71806 2.30211L5.66708 7.84481C5.65695 7.87218 5.63537 7.89376 5.608 7.90389L0.0652964 9.95488C-0.0217655 9.98709 -0.0217655 10.1102 0.0652964 10.1424L5.608 12.1934C5.63537 12.2036 5.65695 12.2251 5.66708 12.2525L7.71806 17.7952C7.75028 17.8823 7.87341 17.8823 7.90563 17.7952L9.95661 12.2525C9.96674 12.2251 9.98832 12.2036 10.0157 12.1934L15.5584 10.1424C15.6455 10.1102 15.6455 9.98709 15.5584 9.95488L10.0157 7.90389C9.98832 7.89376 9.96674 7.87218 9.95661 7.84481L7.90563 2.30211ZM7.90563 7.30211C7.87341 7.21505 7.75028 7.21505 7.71806 7.30211L7.01753 9.19527C7.0074 9.22264 6.98582 9.24422 6.95845 9.25435L5.0653 9.95488C4.97823 9.98709 4.97823 10.1102 5.0653 10.1424L6.95845 10.843C6.98582 10.8531 7.0074 10.8747 7.01753 10.9021L7.71806 12.7952C7.75028 12.8823 7.87342 12.8823 7.90563 12.7952L8.60616 10.9021C8.61629 10.8747 8.63787 10.8531 8.66524 10.843L10.5584 10.1424C10.6455 10.1102 10.6455 9.98709 10.5584 9.95488L8.66524 9.25435C8.63787 9.24422 8.61629 9.22264 8.60616 9.19527L7.90563 7.30211Z" fill="white"/>
<path fill-rule="evenodd" clip-rule="evenodd" d="M15.002 0.113636C14.9698 0.0265744 14.8466 0.0265744 14.8144 0.113636L13.8178 2.80704C13.8077 2.83441 13.7861 2.85599 13.7587 2.86612L11.0653 3.86277C10.9782 3.89498 10.9782 4.01812 11.0653 4.05034L13.7587 5.04699C13.7861 5.05711 13.8077 5.0787 13.8178 5.10607L14.8144 7.79947C14.8466 7.88653 14.9698 7.88653 15.002 7.79947L15.9986 5.10607C16.0088 5.0787 16.0304 5.05711 16.0577 5.04699L18.7511 4.05034C18.8382 4.01812 18.8382 3.89498 18.7511 3.86277L16.0577 2.86612C16.0304 2.85599 16.0088 2.83441 15.9986 2.80704L15.002 0.113636ZM15.002 2.67387C14.9698 2.5868 14.8466 2.5868 14.8144 2.67387L14.5093 3.49853C14.4991 3.5259 14.4776 3.54748 14.4502 3.55761L13.6255 3.86277C13.5385 3.89498 13.5385 4.01812 13.6255 4.05034L14.4502 4.35549C14.4776 4.36562 14.4991 4.3872 14.5093 4.41457L14.8144 5.23924C14.8466 5.3263 14.9698 5.3263 15.002 5.23924L15.3072 4.41457C15.3173 4.3872 15.3389 4.36562 15.3662 4.35549L16.1909 4.05034C16.278 4.01812 16.278 3.89498 16.1909 3.86277L15.3662 3.55761C15.3389 3.54748 15.3173 3.5259 15.3072 3.49853L15.002 2.67387Z" fill="white"/>
<path fill-rule="evenodd" clip-rule="evenodd" d="M15.002 12.1136C14.9698 12.0266 14.8466 12.0266 14.8144 12.1136L13.8178 14.807C13.8077 14.8344 13.7861 14.856 13.7587 14.8661L11.0653 15.8628C10.9782 15.895 10.9782 16.0181 11.0653 16.0503L13.7587 17.047C13.7861 17.0571 13.8077 17.0787 13.8178 17.1061L14.8144 19.7995C14.8466 19.8865 14.9698 19.8865 15.002 19.7995L15.9986 17.1061C16.0088 17.0787 16.0304 17.0571 16.0577 17.047L18.7511 16.0503C18.8382 16.0181 18.8382 15.895 18.7511 15.8628L16.0577 14.8661C16.0304 14.856 16.0088 14.8344 15.9986 14.807L15.002 12.1136ZM15.002 14.6739C14.9698 14.5868 14.8466 14.5868 14.8144 14.6739L14.5093 15.4985C14.4991 15.5259 14.4776 15.5475 14.4502 15.5576L13.6255 15.8628C13.5385 15.895 13.5385 16.0181 13.6255 16.0503L14.4502 16.3555C14.4776 16.3656 14.4991 16.3872 14.5093 16.4146L14.8144 17.2392C14.8466 17.3263 14.9698 17.3263 15.002 17.2392L15.3072 16.4146C15.3173 16.3872 15.3389 16.3656 15.3662 16.3555L16.1909 16.0503C16.278 16.0181 16.278 15.895 16.1909 15.8628L15.3662 15.5576C15.3389 15.5475 15.3173 15.5259 15.3072 15.4985L15.002 14.6739Z" fill="white"/>
</svg>
