<svg width="561" height="95" viewBox="0 0 561 95" fill="none" xmlns="http://www.w3.org/2000/svg">
<path fill-rule="evenodd" clip-rule="evenodd" d="M451.24 37.22C444.88 37.22 439.46 39.48 434.98 43.99C430.5 48.51 428.26 53.94 428.26 60.3C428.26 66.66 430.5 72.08 434.98 76.56C439.46 81.04 444.88 83.28 451.24 83.28C457.6 83.28 463.04 81.04 467.55 76.56C472.07 72.08 474.32 66.66 474.32 60.3C474.32 53.94 472.08 48.41 467.6 43.94C463.12 39.46 457.66 37.22 451.23 37.22H451.24ZM485.81 60.3V94.88H474.32V85.99C467.82 91.92 460.12 94.88 451.23 94.88C441.69 94.88 433.54 91.5 426.79 84.75C420.03 77.99 416.66 69.85 416.66 60.31C416.66 50.77 420.04 42.63 426.79 35.87C433.55 29.11 441.69 25.73 451.23 25.73C460.77 25.73 468.92 29.11 475.67 35.87C482.43 42.63 485.8 50.77 485.8 60.31L485.81 60.3Z" fill="white"/>
<path fill-rule="evenodd" clip-rule="evenodd" d="M353.971 54.5602H398.631C397.401 49.5002 394.711 45.3502 390.551 42.1002C386.391 38.8502 381.641 37.2202 376.301 37.2202C370.961 37.2202 366.201 38.8502 362.051 42.1002C357.901 45.3502 355.201 49.5102 353.981 54.5602H353.971ZM351.851 35.8602C358.611 29.1002 366.751 25.7202 376.291 25.7202C385.831 25.7202 393.981 29.1002 400.731 35.8602C407.491 42.6202 410.861 50.7602 410.861 60.3002C410.861 62.1102 410.681 64.0202 410.321 66.0502H353.961C355.261 71.1102 357.971 75.2402 362.091 78.4602C366.211 81.6802 370.941 83.2802 376.291 83.2802C383.011 83.2802 388.611 80.8602 393.091 76.0202H407.071C404.181 81.7302 399.971 86.3002 394.441 89.7302C388.911 93.1602 382.861 94.8802 376.281 94.8802C366.741 94.8802 358.591 91.5002 351.841 84.7502C345.081 77.9902 341.711 69.8502 341.711 60.3102C341.711 50.7702 345.091 42.6302 351.841 35.8702L351.851 35.8602Z" fill="white"/>
<path fill-rule="evenodd" clip-rule="evenodd" d="M542.499 43.99C537.979 39.47 532.549 37.22 526.189 37.22C519.829 37.22 514.389 39.48 509.879 43.99C505.359 48.51 503.109 53.94 503.109 60.3C503.109 66.66 505.369 72.08 509.879 76.56C514.399 81.04 519.829 83.28 526.189 83.28C532.549 83.28 537.989 81.04 542.499 76.56C547.009 72.08 549.269 66.66 549.269 60.3C549.269 53.94 547.009 48.51 542.499 43.99ZM549.269 34.57V0H560.759V60.3C560.759 69.84 557.379 77.99 550.629 84.74C543.869 91.5 535.729 94.87 526.189 94.87C516.649 94.87 508.499 91.49 501.749 84.74C494.989 77.98 491.609 69.84 491.609 60.3C491.609 50.76 494.989 42.62 501.749 35.86C508.509 29.1 516.649 25.72 526.189 25.72C535.099 25.72 542.789 28.67 549.279 34.56L549.269 34.57Z" fill="white"/>
<path fill-rule="evenodd" clip-rule="evenodd" d="M253.198 76.73C246.568 74.22 241.848 67.81 241.848 60.3C241.848 50.6 249.708 42.75 259.398 42.75C264.118 42.75 268.398 44.61 271.558 47.64C272.438 43.55 274.038 39.66 276.288 36.12C277.188 34.7 278.198 33.33 279.308 32.04C279.308 32.04 279.318 32.02 279.328 32.02C282.598 28.2 286.648 25.1 291.188 22.95C292.058 22.54 292.948 22.16 293.838 21.82V0H276.288V30.13C271.148 27.25 265.338 25.73 259.398 25.73C240.308 25.73 224.828 41.21 224.828 60.3C224.828 77.28 237.068 91.4 253.198 94.32C255.208 94.68 257.288 94.87 259.398 94.87C278.258 94.87 293.968 79.67 293.968 60.3C293.968 55.22 294.828 51.18 295.988 49.18C298.138 45.45 302.128 43.15 306.428 43.15C313.088 43.15 318.488 48.55 318.488 55.21V94.88H335.908V55.21C335.908 38.93 322.708 25.73 306.428 25.73C301.918 25.73 297.648 26.74 293.828 28.55C290.048 30.34 286.708 32.91 284.028 36.05C279.618 41.2 276.948 47.9 276.948 55.22V60.31C276.948 66.38 273.868 71.74 269.178 74.89C266.738 76.6 263.878 77.58 260.918 77.8C260.438 77.84 259.958 77.86 259.468 77.87C257.308 77.87 255.218 77.51 253.198 76.74V76.73Z" fill="#FF7A59"/>
<path fill-rule="evenodd" clip-rule="evenodd" d="M184.46 37.22C178.1 37.22 172.68 39.48 168.2 43.99C163.72 48.51 161.48 53.94 161.48 60.3C161.48 66.66 163.72 72.08 168.2 76.56C172.68 81.04 178.1 83.28 184.46 83.28C190.82 83.28 196.26 81.04 200.77 76.56C205.29 72.08 207.54 66.66 207.54 60.3C207.54 53.94 205.3 48.41 200.82 43.93C196.34 39.45 190.88 37.21 184.45 37.21L184.46 37.22ZM219.04 60.31V94.89H207.55V86C201.05 91.93 193.35 94.89 184.46 94.89C174.92 94.89 166.77 91.51 160.02 84.76C153.26 78 149.89 69.86 149.89 60.32C149.89 50.78 153.27 42.64 160.02 35.88C166.78 29.12 174.92 25.75 184.46 25.75C194 25.75 202.15 29.13 208.9 35.88C215.66 42.64 219.03 50.78 219.03 60.32L219.04 60.31ZM87.19 54.56H131.85C130.62 49.5 127.93 45.35 123.77 42.1C119.61 38.85 114.86 37.22 109.52 37.22C104.18 37.22 99.42 38.85 95.27 42.1C91.12 45.35 88.42 49.51 87.2 54.56H87.19ZM85.08 35.87C91.84 29.11 99.98 25.74 109.52 25.74C119.06 25.74 127.21 29.12 133.96 35.87C140.72 42.63 144.09 50.77 144.09 60.31C144.09 62.12 143.91 64.03 143.55 66.06H87.19C88.49 71.12 91.2 75.25 95.32 78.47C99.44 81.69 104.17 83.29 109.52 83.29C116.24 83.29 121.84 80.87 126.32 76.03H140.3C137.41 81.74 133.2 86.31 127.67 89.74C122.14 93.17 116.09 94.89 109.51 94.89C99.97 94.89 91.82 91.51 85.07 84.76C78.31 78 74.94 69.86 74.94 60.32C74.94 50.78 78.32 42.64 85.07 35.88L85.08 35.87ZM50.89 43.99C46.37 39.47 40.94 37.22 34.58 37.22C28.22 37.22 22.78 39.48 18.27 43.99C13.75 48.51 11.5 53.94 11.5 60.3C11.5 66.66 13.76 72.08 18.27 76.56C22.79 81.04 28.22 83.28 34.58 83.28C40.94 83.28 46.38 81.04 50.89 76.56C55.4 72.08 57.66 66.66 57.66 60.3C57.66 53.94 55.4 48.51 50.89 43.99ZM10.13 35.87C16.89 29.11 25.03 25.74 34.57 25.74C43.48 25.74 51.17 28.69 57.66 34.58V0H69.15V60.3C69.15 69.84 65.77 77.99 59.02 84.74C52.26 91.5 44.12 94.87 34.58 94.87C25.04 94.87 16.89 91.49 10.14 84.74C3.38 77.99 0 69.84 0 60.31C0 50.78 3.38 42.63 10.13 35.87Z" fill="white"/>
</svg>
