<?xml version="1.0" encoding="UTF-8"?>
<svg id="Layer_2" data-name="Layer 2" xmlns="http://www.w3.org/2000/svg" viewBox="0 0 557.26 122.96">
  <defs>
    <style>
      .cls-1 {
        fill: #FFFFFF;
      }

      .cls-2 {
        fill: #ff7a59;
        fill-rule: evenodd;
      }
    </style>
  </defs>
  <g id="Layer_1-2" data-name="Layer 1">
    <g>
      <path class="cls-1" d="M224.11,62.14c0,6.6-2.34,12.24-7.01,16.91s-10.31,7.01-16.91,7.01-12.24-2.34-16.91-7.01c-4.68-4.67-7.01-10.31-7.01-16.91s2.34-12.24,7.01-16.91,10.31-7.01,16.91-7.01c4.8,0,9.23,1.35,13.27,4.05v-17.33h10.65v37.2ZM190.81,71.51c2.6,2.6,5.72,3.9,9.38,3.9s6.77-1.3,9.38-3.9c2.6-2.6,3.9-5.72,3.9-9.38s-1.3-6.77-3.9-9.38c-2.6-2.6-5.73-3.9-9.38-3.9s-6.78,1.3-9.38,3.9c-2.6,2.6-3.9,5.73-3.9,9.38s1.3,6.78,3.9,9.38Z"/>
      <path class="cls-1" d="M235.4,45.23c4.67-4.67,10.31-7.01,16.91-7.01s12.24,2.34,16.91,7.01c4.67,4.68,7.01,10.31,7.01,16.91,0,1.1-.07,2.17-.22,3.22h-36.6c.7,2.9,2.25,5.3,4.65,7.2,2.4,1.9,5.15,2.85,8.25,2.85s6.05-1.05,8.55-3.15h13.05c-1.95,4.15-4.86,7.49-8.74,10.01-3.88,2.53-8.16,3.79-12.86,3.79-6.6,0-12.24-2.34-16.91-7.01-4.68-4.67-7.01-10.31-7.01-16.91s2.34-12.24,7.01-16.91ZM239.86,57.41h24.83c-.95-2.55-2.55-4.62-4.8-6.23-2.25-1.6-4.78-2.4-7.58-2.4s-5.34.8-7.61,2.4c-2.28,1.6-3.89,3.67-4.84,6.23Z"/>
      <path class="cls-1" d="M327.46,62.14v23.92h-10.65v-4.05c-4.05,2.7-8.47,4.05-13.27,4.05-6.6,0-12.24-2.34-16.91-7.01-4.68-4.67-7.01-10.31-7.01-16.91s2.34-12.24,7.01-16.91,10.31-7.01,16.91-7.01,12.24,2.34,16.91,7.01c4.67,4.68,7.01,10.31,7.01,16.91ZM312.91,52.69c-2.6-2.6-5.73-3.9-9.38-3.9s-6.78,1.3-9.38,3.9c-2.6,2.6-3.9,5.75-3.9,9.45s1.3,6.78,3.9,9.38c2.6,2.6,5.72,3.9,9.38,3.9s6.77-1.3,9.38-3.9c2.6-2.6,3.9-5.72,3.9-9.38s-1.3-6.85-3.9-9.45Z"/>
      <path class="cls-1" d="M332.86,62.14V24.94h10.57v37.2c0,3.65,1.3,6.78,3.9,9.38,2.6,2.6,5.72,3.9,9.38,3.9v10.65c-6.6,0-12.22-2.34-16.88-7.01-4.65-4.67-6.97-10.31-6.97-16.91Z"/>
      <path class="cls-1" d="M380.86,38.21c5.1,0,9.47,1.84,13.12,5.51,3.65,3.67,5.47,8.06,5.47,13.16v29.17h-5.25v-29.17c0-3.65-1.3-6.79-3.9-9.41-2.6-2.62-5.75-3.94-9.45-3.94s-6.79,1.31-9.41,3.94-3.94,5.76-3.94,9.41v29.17h-5.33V24.94h5.33v18.9c3.75-3.75,8.2-5.62,13.35-5.62Z"/>
      <path class="cls-1" d="M428.56,86.06c-6.6,0-12.24-2.34-16.91-7.01-4.68-4.67-7.01-10.31-7.01-16.91s2.34-12.24,7.01-16.91,10.31-7.01,16.91-7.01,12.24,2.34,16.91,7.01c4.67,4.68,7.01,10.31,7.01,16.91,0,.55-.03.97-.07,1.27h-42.38c.3,4.85,2.24,8.95,5.81,12.3,3.57,3.35,7.81,5.02,12.71,5.02,3,0,5.82-.69,8.48-2.06,2.65-1.37,4.85-3.26,6.6-5.66h6.23c-2,3.95-4.91,7.11-8.74,9.49-3.83,2.38-8.01,3.56-12.56,3.56ZM410.41,58.09h36.3c-.9-4.2-3.05-7.67-6.45-10.42-3.4-2.75-7.3-4.12-11.7-4.12s-8.3,1.38-11.7,4.12c-3.4,2.75-5.55,6.23-6.45,10.42Z"/>
      <path class="cls-1" d="M480.39,38.21c6.6,0,12.23,2.34,16.88,7.01,4.65,4.68,6.98,10.31,6.98,16.91v23.92h-5.25v-8.92c-2.25,2.75-5,4.93-8.25,6.52-3.25,1.6-6.7,2.4-10.35,2.4-6.65,0-12.3-2.34-16.95-7.01-4.65-4.67-6.98-10.31-6.98-16.91s2.33-12.24,6.98-16.91c4.65-4.67,10.3-7.01,16.95-7.01ZM480.39,43.54c-5.15,0-9.54,1.81-13.16,5.44-3.63,3.63-5.44,8.01-5.44,13.16s1.81,9.54,5.44,13.16c3.62,3.63,8.01,5.44,13.16,5.44s9.47-1.81,13.12-5.44c3.65-3.62,5.48-8.01,5.48-13.16s-1.83-9.54-5.48-13.16c-3.65-3.62-8.02-5.44-13.12-5.44Z"/>
      <path class="cls-1" d="M550.25,79.05c-4.68,4.68-10.31,7.01-16.91,7.01s-12.24-2.34-16.91-7.01c-4.68-4.67-7.01-10.31-7.01-16.91s2.34-12.24,7.01-16.91c4.67-4.67,10.31-7.01,16.91-7.01,3.7,0,7.17.79,10.42,2.36,3.25,1.57,5.97,3.76,8.17,6.56v-22.2h5.33v37.2c0,6.6-2.34,12.24-7.01,16.91ZM520.17,75.3c3.62,3.63,8.01,5.44,13.16,5.44s9.54-1.81,13.16-5.44c3.62-3.62,5.44-8.01,5.44-13.16s-1.81-9.54-5.44-13.16c-3.63-3.62-8.01-5.44-13.16-5.44s-9.54,1.81-13.16,5.44c-3.63,3.63-5.44,8.01-5.44,13.16s1.81,9.54,5.44,13.16Z"/>
    </g>
    <path class="cls-2" d="M36.77,99.44c-8.6-3.25-14.71-11.55-14.71-21.29,0-12.57,10.19-22.75,22.75-22.75,6.12,0,11.67,2.41,15.76,6.34,1.14-5.29,3.21-10.35,6.13-14.94,1.17-1.84,2.47-3.61,3.91-5.29,0-.01.02-.02.03-.03,4.24-4.95,9.48-8.96,15.37-11.75,1.13-.53,2.28-1.02,3.44-1.46V0h-22.75v39.05c-6.66-3.73-14.19-5.71-21.88-5.71C20.06,33.35,0,53.41,0,78.15c0,22,15.86,40.3,36.77,44.09,2.61.47,5.29.72,8.04.72h0c24.44,0,44.81-19.7,44.81-44.81,0-6.58,1.11-11.82,2.61-14.41,2.79-4.84,7.95-7.82,13.54-7.82,8.63,0,15.63,7,15.63,15.63v51.41h22.58v-51.41c0-21.1-17.11-38.21-38.21-38.21-5.84,0-11.37,1.31-16.32,3.65-4.9,2.32-9.22,5.65-12.71,9.71-5.72,6.68-9.18,15.36-9.18,24.84v6.6c0,7.87-4,14.81-10.07,18.89-3.16,2.22-6.87,3.49-10.71,3.77-.62.05-1.25.08-1.88.08-2.8,0-5.5-.47-8.13-1.46h0Z"/>
  </g>
</svg>